<svg width="194.43" height="130.935" viewBox="0 0 194.43 130.935" xmlns="http://www.w3.org/2000/svg">
  <path style="fill:#020202;stroke:none;stroke-width:.950495" d="M152.432 214.278c36.79.763 45.692-26.378 47.812-32.317 3.037-8.505-.542-19.81 2.862-27.362 1.231-2.73 4.87-3.98 7.307-5.358 5.882-3.328 17.62-12.537 24.4-12.363 3.536.091 5.424 6.39 6.734 8.964 4.372 8.596 11.748 23.947 23.956 16.293 14.429-9.045-2.325-28.8-6.615-39.105l9.505-3.802c1.802 6.255 5.866 15.54 11.447 19.259 6.632 4.42 16.781.999 18.594-6.903 2.174-9.48-5.713-17.1-8.18-25.663 10.878-5.971 5.04-22.245-6.653-22.558-8.498-.227-19.373 8.221-26.614 12.235-13.473 7.468-27.4 14.13-40.871 21.597-6.912 3.832-16.03 10.825-23.763 12.377-5.642 1.132-14.422-8.524-19.96-10.709-15.177-5.987-32.89-4.176-46.575 4.688-39.716 25.724-20.44 90.597 26.614 90.727m-3.802-83.359c43.56-6.28 54.056 61.58 10.456 67.866-44.133 6.361-54.928-61.454-10.456-67.866" transform="translate(-104.379 -83.359)"/>
</svg>
