<svg xmlns="http://www.w3.org/2000/svg" width="32" height="32" viewBox="0 0 32 32" xml:space="preserve"><path fill="none" d="M0 0h32v32H0z"/><path d="M31.513 8.014c-.459-.986-1.67-2.049-3.514-2.014H4C2.146 5.965.935 7.057.48 8.054-.006 9.044.004 9.916 0 10v11.999c.004.083-.006.956.48 1.947C.928 24.927 2.108 26 3.913 26L4 25.999h23.999c.083-.006.956.007 1.946-.481.997-.453 2.089-1.664 2.054-3.519V9.938c-.006-.086.007-.947-.486-1.924zM2.033 9.695c.05-.319.194-.787.467-1.106.281-.313.625-.575 1.5-.589h23.999c1.156.035 1.444.438 1.734.923.126.247.198.519.233.723.034.204.024.291.032.292V10H2s-.002-.095.033-.305zm27.019 14.034a2.649 2.649 0 0 1-.748.235c-.21.036-.305.028-.305.034H4c-1.147-.034-1.436-.444-1.732-.947a2.7 2.7 0 0 1-.234-.75c-.036-.207-.028-.302-.034-.302V14h27.999v7.999c-.035 1.146-.444 1.436-.947 1.73z"/></svg>