<svg width="486.653" height="486.653" viewBox="0 0 486.653 486.653" xmlns="http://www.w3.org/2000/svg">
  <path style="fill:#020202;stroke:none;stroke-width:.950495" d="M146.776 131.111c.08 9.609 3.967 18.557 6.97 27.565 6.308 18.925 10.627 39.255 28.198 51.238 11.527 7.86 24.874 13.42 37.07 20.181 4.76 2.64 12.245 4.581 13.992 10.338 3.202 10.547 2.234 23.28 3.278 34.203 4.903 51.307-5.667 101.633-2.148 153.03.944 13.773-2.555 31.81 3.14 44.673 8.405 18.983 36.911 14.97 41.126-4.752 3.235-15.133-1.222-33.1-1.404-48.476-.32-26.842 3.577-53.191 3.798-79.841 12.85.152 12.828 23.965 15.007 34.218 5.386 25.326 10.893 50.653 15.979 76.04 2.225 11.105 2.98 25.422 12.74 32.736 16.975 12.722 35.899-3.816 34.052-22.281-4.17-41.716-17.528-84.441-26.25-125.466-3.858-18.135-2.6-37.257-6.855-55.128 10.15 11.729 19.253 33.035 33.267 40.22 15.079 7.731 33.12-5.354 29.971-22.16-1.996-10.656-11.893-20.093-18.21-28.516-15.916-21.221-31.797-47.793-51.718-65.38-6.608-5.835-16.326-5.906-24.676-5.907-14.549 0-30.245 1.69-44.674-.126-9.08-1.143-18.544-8.882-26.613-12.945-7.343-3.698-18.132-7.38-21.55-15.445-4.895-11.557-8.049-24.208-12.034-36.118-1.388-4.146-5.602-10.008-5.595-14.257.01-5.749 8.83-14.022 10.95-19.96 3.038-8.505-.541-19.81 2.863-27.362 1.23-2.731 4.87-3.98 7.306-5.359 5.883-3.327 17.62-12.536 24.4-12.362 3.537.09 5.425 6.389 6.735 8.964 4.372 8.596 11.748 23.947 23.956 16.293 14.428-9.045-2.325-28.8-6.616-39.105l9.505-3.802c1.803 6.255 5.867 15.539 11.447 19.259 6.633 4.42 16.782.998 18.595-6.903 2.174-9.48-5.714-17.1-8.18-25.663 10.877-5.971 5.04-22.245-6.654-22.558-8.497-.227-19.373 8.221-26.614 12.235-13.473 7.468-27.4 14.13-40.87 21.597-6.913 3.831-16.03 10.825-23.763 12.377-5.642 1.132-14.422-8.524-19.96-10.71-15.177-5.986-32.89-4.175-46.575 4.689-39.716 25.724-20.44 90.597 26.614 90.726m-3.802-83.358c43.56-6.28 54.056 61.58 10.455 67.865-44.132 6.362-54.928-61.454-10.455-67.865m123.564 45.743c-8.227 1.106-15.833 3.222-22.812 7.912-43.491 29.23-15.87 96.653 35.169 89.3 60.294-8.689 47.645-105.283-12.357-97.212z"/>
</svg>
